<svg width="19" height="18" viewBox="0 0 19 18" fill="none" xmlns="http://www.w3.org/2000/svg">
<path d="M9.68309 17.5922L10.4565 16.8188C10.6395 16.6358 10.6395 16.339 10.4565 16.1559L4.39672 10.0962L17.7339 10.0962C17.9927 10.0962 18.2026 9.88629 18.2026 9.62742V8.53367C18.2026 8.2748 17.9927 8.06492 17.7339 8.06492L4.39672 8.06492L10.4565 2.00515C10.6395 1.82211 10.6395 1.52531 10.4565 1.34222L9.68309 0.568865C9.50004 0.385818 9.20325 0.385818 9.02016 0.568865L0.839922 8.7491C0.656875 8.93215 0.656875 9.22894 0.839922 9.41203L9.02016 17.5923C9.20321 17.7753 9.5 17.7753 9.68309 17.5922Z" fill="white"/>
</svg>
