<svg width="9" height="17" viewBox="0 0 9 17" fill="none" xmlns="http://www.w3.org/2000/svg">
<path d="M7.95264 0.0804443L1.95264 0.0804443C1.40045 0.0804443 0.952637 0.528257 0.952637 1.08044L0.952637 15.0804C0.952637 15.6326 1.40045 16.0804 1.95264 16.0804H7.95264C8.50482 16.0804 8.95264 15.6326 8.95264 15.0804L8.95264 1.08044C8.95264 0.528257 8.50482 0.0804443 7.95264 0.0804443ZM1.95264 15.0804L1.95264 1.08044L7.95264 1.08044L7.95264 3.08044L6.20264 3.08044C6.06451 3.08044 5.95264 3.19232 5.95264 3.33044V3.83044C5.95264 3.96857 6.06451 4.08044 6.20264 4.08044L7.95264 4.08044V6.08044H6.20264C6.06451 6.08044 5.95264 6.19232 5.95264 6.33044V6.83044C5.95264 6.96857 6.06451 7.08044 6.20264 7.08044H7.95264L7.95264 9.08044L6.20264 9.08044C6.06451 9.08044 5.95264 9.19232 5.95264 9.33044V9.83044C5.95264 9.96857 6.06451 10.0804 6.20264 10.0804L7.95264 10.0804V12.0804L6.20264 12.0804C6.06451 12.0804 5.95264 12.1923 5.95264 12.3304V12.8304C5.95264 12.9686 6.06451 13.0804 6.20264 13.0804L7.95264 13.0804L7.95264 15.0804L1.95264 15.0804Z" fill="#212121"/>
</svg>
