<svg width="17" height="17" viewBox="0 0 17 17" fill="none" xmlns="http://www.w3.org/2000/svg">
<path d="M14.9526 2.08044L12.9273 2.08044C12.0136 0.873569 10.5798 0.0804443 8.95264 0.0804443C7.32545 0.0804443 5.8917 0.873569 4.97795 2.08044L2.95264 2.08044C1.84982 2.08044 0.952637 2.97763 0.952637 4.08044L0.952637 14.0804C0.952637 15.1833 1.84982 16.0804 2.95264 16.0804H14.9526C16.0554 16.0804 16.9526 15.1833 16.9526 14.0804V4.08044C16.9526 2.97763 16.0554 2.08044 14.9526 2.08044ZM8.95264 1.08044C11.1617 1.08044 12.9526 2.87138 12.9526 5.08044C12.9526 7.28951 11.1617 9.08044 8.95264 9.08044C6.74357 9.08044 4.95264 7.28951 4.95264 5.08044C4.95264 2.87138 6.74357 1.08044 8.95264 1.08044ZM15.9526 14.0804C15.9526 14.6326 15.5048 15.0804 14.9526 15.0804L2.95264 15.0804C2.40045 15.0804 1.95264 14.6326 1.95264 14.0804L1.95264 4.08044C1.95264 3.52826 2.40045 3.08044 2.95264 3.08044H4.37639C4.10701 3.69388 3.95264 4.36857 3.95264 5.08044C3.95264 7.83732 6.19576 10.0804 8.95264 10.0804C11.7095 10.0804 13.9526 7.83732 13.9526 5.08044C13.9526 4.36857 13.7983 3.69388 13.5289 3.08044H14.9526C15.5048 3.08044 15.9526 3.52826 15.9526 4.08044L15.9526 14.0804ZM8.95264 8.08044C9.77982 8.08044 10.4526 7.40763 10.4526 6.58044C10.4526 6.14544 10.2636 5.75669 9.96701 5.48263L10.912 3.27732C11.0208 3.02388 10.9033 2.72982 10.6492 2.62107C10.3967 2.51232 10.1017 2.62951 9.99295 2.88388L9.04732 5.09013C7.9392 5.01794 7.45264 5.97576 7.45264 6.58044C7.45264 7.40763 8.12545 8.08044 8.95264 8.08044ZM8.95264 6.08044C9.22889 6.08044 9.45264 6.30419 9.45264 6.58044C9.45264 6.85669 9.22889 7.08044 8.95264 7.08044C8.67639 7.08044 8.45264 6.85669 8.45264 6.58044C8.45264 6.30419 8.67639 6.08044 8.95264 6.08044Z" fill="#212121"/>
</svg>
